<svg width="375" height="657" viewBox="0 0 375 657" fill="none" xmlns="http://www.w3.org/2000/svg">
<path d="M372.21 412.261C372.763 412.261 373.21 411.813 373.21 411.261V129.466C373.21 58.5537 315.52 0.863281 244.608 0.863281H27.4699C26.9172 0.863281 26.4699 1.31055 26.4699 1.86328C26.4699 2.41601 26.9172 29.8633 27.4699 29.8633L244.608 2.86328C314.416 2.86328 371.21 59.6572 371.21 129.466L373.21 638.5C373.21 639.053 371.657 412.261 372.21 412.261Z" fill="black"/>
<path d="M127.423 195.268C127.423 190.947 125.704 186.718 122.473 183.571L76.9224 139.199C75.7339 134.676 73.4624 130.447 70.3491 126.959C66.5864 122.631 61.9692 119.492 57.3472 118.12C52.645 116.724 48.4897 117.317 45.646 119.788C39.8442 124.83 41.4888 136.256 49.3101 145.254C52.3237 148.82 56.1938 151.658 60.5044 153.463L101.854 196.087L79.0903 230.583C74.6821 235.723 73.7056 242.838 76.5776 249.1C79.352 255.15 85.1528 258.918 91.7173 258.935C98.7388 258.952 104.956 254.749 107.557 248.228L126.252 201.344C127.041 199.368 127.423 197.307 127.423 195.268Z" fill="#E9BBBB"/>
<path d="M89.2102 154.863C69.328 154.863 53.2102 138.746 53.2102 118.863C53.2102 98.981 69.328 82.8633 89.2102 82.8633C109.092 82.8633 125.21 98.981 125.21 118.863C125.21 138.746 109.092 154.863 89.2102 154.863Z" fill="black"/>
<path d="M70.4599 215.208L97.2559 235.634L63.2608 258.983L46.2022 222.417L70.4599 215.208Z" fill="#E9BBBB"/>
<path d="M55.8442 232.782C40.1775 232.782 27.4771 220.082 27.4771 204.415C27.4771 188.748 40.1775 176.048 55.8442 176.048C71.5108 176.048 84.2112 188.748 84.2112 204.415C84.2112 220.082 71.5108 232.782 55.8442 232.782Z" fill="#E9BBBB"/>
<path d="M53.638 236.203C53.638 236.203 47.2461 215.74 51.3767 211.872C55.5073 208.005 55.3758 212.004 55.3758 212.004L50.1369 192.285C50.1369 192.285 52.6331 180.828 69.1697 179.253C69.1697 179.253 63.2955 168.109 54.7572 169.948C46.2189 171.786 45.6788 173.888 42.0518 173.18C38.425 172.472 30.9081 179.054 30.9081 179.054C30.9081 179.054 27.0581 175.912 27.4943 179.789C27.9305 183.666 23.8392 190.003 23.8392 190.003C23.8392 190.003 21.5097 188.55 22.1511 192.618C22.7924 196.685 19.7784 198.823 19.7784 198.823C19.7784 198.823 23.7685 201.399 22.4885 203.431C21.2085 205.464 16.0927 207.062 18.0265 209.127C19.9603 211.192 18.5079 215.972 25.0537 221.015C31.5995 226.058 53.638 236.203 53.638 236.203Z" fill="black"/>
<path d="M36.8325 605.957L37.0707 605.71L104.034 536.138C110.515 529.404 113.653 520.213 112.643 510.921L109.15 478.775L75.2368 484.941L73.9399 505.207L16.9789 597.598L36.8325 605.957Z" fill="#E9BBBB"/>
<path d="M28.6956 656.137C29.7756 656.137 30.843 655.861 31.8167 655.321C34.1741 654.011 35.4758 651.34 35.0559 648.676L32.7278 633.936L44.7473 607.893L41.5774 598.383L23.429 597.375L17.3801 591.326L10.6057 592.505C6.55298 593.209 3.17896 595.727 1.34888 599.41C-0.480225 603.095 -0.447998 607.303 1.43872 610.958L22.9524 652.641C23.76 654.205 25.1331 655.348 26.8186 655.856C27.4377 656.044 28.0686 656.137 28.6956 656.137Z" fill="#FF9300"/>
<path d="M62.7102 411.363L75.7102 493.363L138.71 523.363L148.71 443.363L62.7102 411.363Z" fill="#FF9300"/>
<path d="M98.8325 581.957L99.0707 581.71L166.034 512.138C172.515 505.404 175.653 496.213 174.643 486.921L171.15 454.775L137.237 460.941L135.94 481.207L78.9789 573.598L98.8325 581.957Z" fill="#E9BBBB"/>
<path d="M90.6956 632.137C91.7756 632.137 92.843 631.861 93.8167 631.321C96.1741 630.011 97.4758 627.34 97.0559 624.676L94.7278 609.936L106.747 583.893L103.577 574.383L85.429 573.375L79.3801 567.326L72.6057 568.505C68.553 569.209 65.179 571.727 63.3489 575.41C61.5198 579.095 61.552 583.303 63.4387 586.958L84.9524 628.641C85.76 630.205 87.1331 631.348 88.8186 631.856C89.4377 632.044 90.0686 632.137 90.6956 632.137Z" fill="#FF9300"/>
<path d="M134.372 383.895L141.41 403.036L173.011 454.648C173.94 456.164 174.089 457.978 173.421 459.625C172.753 461.271 171.383 462.469 169.662 462.91L99.9183 480.794L67.6312 435.454C58.4212 422.52 53.6566 406.688 54.1937 390.823L134.372 383.895Z" fill="#FF9300"/>
<path d="M62.3899 403.363H142.422L142.377 402.822L132.273 280.347C130.949 264.295 122.648 249.755 109.499 240.455L109.361 240.357L54.6555 242.383L66.5325 352.771L50.7385 384.567C48.7219 388.629 48.9436 393.354 51.3333 397.208C53.7219 401.062 57.8557 403.363 62.3899 403.363Z" fill="#FF9301"/>
<path d="M84.2766 264.996C88.844 264.997 93.2981 263.144 96.5901 259.667L131.289 223.012C135.853 218.191 137.052 211.161 134.345 205.101L108.419 147.034C108.988 142.394 108.44 137.624 106.833 133.232C104.938 127.821 101.808 123.197 98.0208 120.215C94.1663 117.179 90.0872 116.192 86.5315 117.441C79.2766 119.982 76.5813 131.204 80.5237 142.457C82.0061 146.882 84.554 150.95 87.8919 154.223L110.561 209.11L76.6595 232.752C70.6653 235.898 67.1272 242.147 67.4817 249.028C67.8235 255.676 71.8216 261.321 77.9153 263.762C79.9886 264.593 82.1448 264.996 84.2766 264.996Z" fill="#E9BBBB"/>
<path d="M334.94 156.648C326.177 167.14 322.776 181.02 320.439 194.488C319.584 199.412 318.836 204.354 318.196 209.309C315.806 227.808 315.002 247.116 321.462 264.614C323.098 269.046 324.757 275.015 320.852 277.674C317.75 279.786 313.213 277.593 311.524 274.242C309.835 270.891 310.171 266.922 310.547 263.188C314.658 267.603 313.375 275.778 308.11 278.721C302.845 281.665 295.209 278.477 293.6 272.664C292.762 278.867 286.675 283.891 280.426 283.537C274.176 283.184 268.695 277.506 268.561 271.248C271.801 274.69 270.199 280.925 266.177 283.409C262.155 285.894 256.794 285.196 252.668 282.887C248.543 280.578 245.385 276.905 242.317 273.307C246.361 275.806 247.308 282.129 244.173 285.702C241.038 289.276 234.646 289.16 231.642 285.475C229.167 282.439 229.18 278.007 230.388 274.28C231.596 270.554 233.819 267.252 235.493 263.711C243.161 247.492 238.645 228.257 232.31 211.473C225.976 194.689 217.804 177.81 218.489 159.883" fill="white"/>
<path d="M335.471 157.179C329.045 164.946 325.545 174.562 323.254 184.264C320.771 194.776 319.223 205.598 318.129 216.336C317.023 227.203 316.656 238.266 318.304 249.098C319.099 254.323 320.384 259.446 322.185 264.415C323.428 267.841 324.926 272.15 323.392 275.722C321.582 279.932 316.514 279.997 313.266 277.466C308.935 274.093 309.309 268.083 309.797 263.188C309.857 262.596 310.604 262.13 311.078 262.658C314.458 266.423 314.553 272.406 311.643 276.489C308.559 280.816 302.836 281.598 298.262 279.231C295.697 277.903 293.702 275.644 292.877 272.863H294.324C293.322 279.474 286.823 284.865 280.079 284.262C273.477 283.673 268.056 277.836 267.811 271.248C267.788 270.616 268.66 270.235 269.092 270.717C271.273 273.157 271.509 276.58 270.292 279.54C268.947 282.812 266.043 284.947 262.579 285.532C253.667 287.037 247.011 279.962 241.787 273.838C241.267 273.228 241.936 272.167 242.696 272.66C246.035 274.827 247.507 279.144 246.459 282.957C245.356 286.965 241.444 289.322 237.386 289.04C232.822 288.723 229.581 285.375 228.969 280.9C228.228 275.479 231.002 270.649 233.46 266.05C245.148 244.183 234.838 220.049 226.617 198.945C221.755 186.461 217.276 173.466 217.739 159.884C217.771 158.921 219.272 158.916 219.239 159.884C218.471 182.443 231.118 202.194 237.019 223.283C239.819 233.29 241.382 243.968 239.359 254.274C238.353 259.4 238.165 264.79 235.71 269.363C233.393 273.679 229.036 278.106 231.055 283.03C232.93 287.604 239.206 289.077 242.975 285.838C246.569 282.748 245.8 276.461 241.939 273.955L242.848 272.777C247.405 278.12 251.059 277.423 258.71 277.363C262.002 277.338 266.892 282.782 268.508 279.82C269.879 277.306 270.023 274.005 268.031 271.778L269.311 271.248C269.529 277.103 274.515 282.435 280.426 282.787C286.454 283.147 291.987 278.339 292.877 272.465C292.994 271.692 294.13 271.813 294.324 272.465C295.917 277.832 302.94 280.868 307.864 277.997C312.665 275.197 313.69 267.811 310.017 263.719L311.297 263.188C310.847 267.7 310.275 273.644 314.567 276.572C316.195 277.683 318.394 278.235 320.196 277.202C321.953 276.195 319.733 273.27 319.71 271.363C319.66 267.071 320.285 263.912 319.113 259.86C317.713 255.019 316.813 250.045 316.284 245.036C315.206 234.813 315.718 224.485 316.847 214.29C317.968 204.17 319.435 193.988 321.759 184.068C324.112 174.026 327.766 164.148 334.41 156.118C335.026 155.374 336.082 156.44 335.471 157.179Z" fill="#3D3C48"/>
<path d="M276.71 169.444C307.251 169.444 339.71 164.362 339.71 154.944C339.71 145.526 307.251 140.444 276.71 140.444C246.169 140.444 213.71 145.526 213.71 154.944C213.71 164.362 246.169 169.444 276.71 169.444ZM276.71 142.444C312.658 142.444 337.71 149.032 337.71 154.944C337.71 160.856 312.658 167.444 276.71 167.444C240.762 167.444 215.71 160.856 215.71 154.944C215.71 149.032 240.762 142.444 276.71 142.444Z" fill="#3D3C48"/>
<path d="M346.632 183.492C346.946 183.492 347.26 183.474 347.574 183.438L367 181.198C371.105 180.724 374.275 177.253 374.374 173.121L374.998 147.258C375.055 144.882 374.091 142.59 372.355 140.968C370.618 139.345 368.262 138.543 365.898 138.761L336.752 141.472C333.464 141.779 330.664 144.001 329.619 147.134L324.937 161.182C323.855 164.43 324.904 168.074 327.546 170.249L341.324 181.593C342.817 182.822 344.71 183.492 346.632 183.492Z" fill="black"/>
</svg>
