<svg width="512" height="512" viewBox="0 0 512 512" fill="none" xmlns="http://www.w3.org/2000/svg">
<path d="M426.4 182.5C390.6 188.4 332.2 190 293.4 116.4C251.8 37.3 184.6 34.9 145.3 42.1C126.2 45.6 111.9 61.6 111.9 77.1V273.7C123.2 278 135.3 273.5 138.4 272.9C139.2 272.7 139.9 272.6 140.8 272.4C165.8 266.9 192.2 264.3 257.6 295.7C339.6 335 411.4 262.6 439.2 212.2C441.2 208.7 447.9 192 447.9 176C438.2 180 426.4 182.5 426.4 182.5ZM88 32H72C67.6 32 64 35.6 64 40V472C64 476.4 67.6 480 72 480H88C92.4 480 96 476.4 96 472V40C96 35.6 92.4 32 88 32Z" fill="black"/>
</svg>
