<svg width="398" height="378" viewBox="0 0 398 378" fill="none" xmlns="http://www.w3.org/2000/svg">
<g clip-path="url(#clip0_104_46)">
<path d="M1.52588e-05 300.47L30.391 259.864C85.644 186.038 134.281 109.024 182.231 30.264C188.22 20.4262 198.919 0.00897217 198.919 0.00897217L-0.000976562 300.479L1.52588e-05 300.47Z" fill="black"/>
<path d="M88.6601 157.49C102.218 141.794 120.823 155.905 135.014 162.576C148.509 175.709 159.217 154.259 170.949 147.687C175.469 135.14 200.468 138.27 199.138 126.442C187.481 115.988 169.398 101.263 182.156 84.7434C189.322 75.706 206.798 65.5974 215.535 77.5282C223.454 87.0784 220.078 109.648 234.633 108.498C250.157 105.134 265.961 105.321 281.566 103.004C298.459 98.4297 317.745 101.113 330.522 113.813C337.9 118.159 358.655 121.87 355.984 126.325C353.69 130.15 345.115 124.956 353.531 129.042C364.319 136.787 348.669 132.568 349.83 134.246C355.454 142.374 348.11 138.309 343.606 136.995C341.303 136.323 350.721 146.767 338.823 142.339C324.738 135.467 317.29 114.354 298.198 121.033C285.925 126.374 257.631 119.464 267.806 141.557C274.258 163.694 271.355 188.261 282.186 209.154C291.806 224.9 304.615 231.383 315.055 246.522C334.301 271.328 360.057 293.552 366.281 325.81C369.735 343.239 383.579 355.952 396.653 366.593C402.362 384.492 373.026 373.442 363.725 370.848C341.983 369.372 362.397 339.796 343.864 332.189C330.429 322.776 329.096 303.886 315.807 295.091C298.65 281.951 286.794 272.771 270.042 258.942C253.768 247.007 233.939 267.195 223.471 278.702C204.749 293.096 188.312 310.42 173.792 328.999C160.789 340.05 154.99 356.662 141.037 366.061C130.135 370.306 105.535 385.892 100.526 371.15C108.09 355.965 127.642 355.01 136.527 341.41C141.902 330.356 147.262 319.737 156 310.844C164.122 298.54 175.577 288.719 180.853 274.391C186.514 259.189 198.444 248.461 209.809 237.472C220.545 225.378 212.012 209.669 205.204 197.982C198.583 189.86 195.745 157.753 182.08 172.516C170.847 184.476 153.802 192.597 137.234 189.745C124.699 179.199 114.317 160.985 95.3711 170.874C88.2292 172.284 85.8855 162.423 88.6609 157.491L88.6601 157.49Z" fill="black" stroke="black"/>
<path d="M235.168 25.5625C233.918 25.1875 233.168 24.375 232.918 23.125C232.606 22.25 232.699 21.3125 233.199 20.3125C233.699 19.25 234.481 18.6562 235.543 18.5312C241.606 17.5938 247.668 17.0938 253.731 17.0312C259.856 16.9062 265.981 16.8125 272.106 16.75C273.293 16.75 274.199 17.125 274.824 17.875C275.449 18.625 275.762 19.4688 275.762 20.4062C275.762 21.3438 275.449 22.2188 274.824 23.0312C274.199 23.7812 273.293 24.1562 272.106 24.1562C267.231 24.2812 262.324 24.3438 257.387 24.3438C252.449 24.3438 247.512 24.5938 242.574 25.0938C242.699 27.5938 242.856 30.0938 243.043 32.5938C243.231 35.0312 243.418 37.5 243.606 40C248.356 39.75 253.074 39.4375 257.762 39.0625C262.512 38.6875 267.262 38.625 272.012 38.875C273.199 38.9375 274.106 39.375 274.731 40.1875C275.356 41 275.668 41.875 275.668 42.8125C275.668 43.75 275.356 44.5938 274.731 45.3438C274.106 46.0938 273.199 46.4375 272.012 46.375C267.324 46.125 262.668 46.1875 258.043 46.5625C253.481 46.9375 248.856 47.25 244.168 47.5C244.543 52 244.887 56.5 245.199 61C245.574 65.4375 245.824 69.9062 245.949 74.4062C248.137 73.9062 250.356 73.4375 252.606 73C254.856 72.5 257.106 72.125 259.356 71.875C261.606 71.5625 263.856 71.4062 266.106 71.4062C268.356 71.4062 270.606 71.5938 272.856 71.9688C273.856 72.1562 274.606 72.75 275.106 73.75C275.606 74.75 275.731 75.6875 275.481 76.5625C275.168 77.625 274.574 78.375 273.699 78.8125C272.824 79.25 271.856 79.375 270.793 79.1875C268.793 78.8125 266.762 78.6875 264.699 78.8125C262.637 78.9375 260.606 79.1562 258.606 79.4688C256.293 79.8438 253.981 80.2812 251.668 80.7812C249.418 81.2812 247.168 81.8125 244.918 82.375C243.856 82.625 242.856 82.4375 241.918 81.8125C241.043 81.6875 240.262 81.3438 239.574 80.7812C238.887 80.2188 238.543 79.375 238.543 78.25C238.418 72.9375 238.168 67.6875 237.793 62.5C237.481 57.3125 237.106 52.0938 236.668 46.8438C235.981 46.1562 235.574 45.3125 235.449 44.3125C235.387 43.25 235.668 42.3438 236.293 41.5938C235.793 36.2812 235.418 30.9375 235.168 25.5625ZM302.012 56.3125C300.512 54.75 298.918 53.3125 297.231 52C295.543 50.625 293.856 49.2812 292.168 47.9688C290.543 46.5938 288.949 45.1875 287.387 43.75C285.824 42.25 284.387 40.625 283.074 38.875C281.699 37.0625 280.606 35.0938 279.793 32.9688C279.043 30.7812 278.918 28.5312 279.418 26.2188C279.918 23.7188 281.137 21.5312 283.074 19.6562C285.012 17.7812 287.106 16.3125 289.356 15.25C291.793 14.1875 294.262 13.4688 296.762 13.0938C299.262 12.6563 301.793 12.4062 304.356 12.3438C306.918 12.2187 309.481 12.2187 312.043 12.3438C314.668 12.4062 317.262 12.375 319.824 12.25C321.012 12.1875 321.887 12.5312 322.449 13.2812C323.074 14.0312 323.387 14.875 323.387 15.8125C323.387 16.75 323.074 17.625 322.449 18.4375C321.887 19.1875 321.012 19.5938 319.824 19.6562C318.012 19.7812 316.199 19.8438 314.387 19.8438C312.637 19.7812 310.856 19.7188 309.043 19.6562C306.606 19.5938 304.137 19.625 301.637 19.75C299.199 19.875 296.793 20.375 294.418 21.25C293.606 21.5625 292.731 21.9688 291.793 22.4688C290.856 22.9062 289.981 23.4688 289.168 24.1562C288.418 24.8438 287.793 25.5938 287.293 26.4062C286.793 27.2188 286.574 28.0938 286.637 29.0312C286.699 29.9062 286.918 30.7812 287.293 31.6562C287.668 32.4688 288.137 33.2812 288.699 34.0938C289.324 34.9062 289.981 35.6875 290.668 36.4375C291.356 37.1875 292.012 37.875 292.637 38.5C294.074 39.9375 295.574 41.25 297.137 42.4375C298.699 43.625 300.262 44.8438 301.824 46.0938C303.449 47.4062 305.074 48.875 306.699 50.5C308.387 52.0625 309.824 53.7812 311.012 55.6562C312.262 57.4688 313.168 59.4062 313.731 61.4688C314.356 63.5312 314.449 65.7188 314.012 68.0312C313.574 70.2188 312.731 72.0938 311.481 73.6562C310.293 75.1562 308.856 76.5312 307.168 77.7812C305.543 78.9688 303.793 80.0625 301.918 81.0625C300.106 82 298.356 82.9688 296.668 83.9688C295.606 84.5938 294.606 84.7188 293.668 84.3438C292.793 83.9688 292.106 83.375 291.606 82.5625C291.168 81.75 290.981 80.875 291.043 79.9375C291.168 78.9375 291.762 78.125 292.824 77.5C294.324 76.625 295.824 75.8125 297.324 75.0625C298.824 74.3125 300.293 73.4688 301.731 72.5312C303.106 71.6562 304.293 70.625 305.293 69.4375C306.356 68.1875 306.887 66.75 306.887 65.125C306.824 63.5 306.293 61.9375 305.293 60.4375C304.356 58.9375 303.262 57.5625 302.012 56.3125ZM323.481 66.8125C321.981 63.1875 320.949 59.4688 320.387 55.6562C320.074 53.4688 319.793 51.2812 319.543 49.0938C319.356 46.8438 319.574 44.625 320.199 42.4375C320.512 41.0625 320.918 39.75 321.418 38.5C321.918 37.1875 322.418 35.875 322.918 34.5625C323.293 33.5625 323.543 32.5625 323.668 31.5625C323.856 30.5625 324.106 29.5312 324.418 28.4688C325.043 26.2188 325.981 24.2812 327.231 22.6562C328.481 20.9688 330.137 19.5938 332.199 18.5312C334.137 17.4688 336.137 16.625 338.199 16C340.262 15.375 342.356 14.875 344.481 14.5C346.418 14.125 348.356 13.8437 350.293 13.6562C352.293 13.4687 354.293 13.5 356.293 13.75C357.356 13.875 358.231 14.25 358.918 14.875C359.668 15.5 360.043 16.3437 360.043 17.4062C360.043 18.3438 359.668 19.25 358.918 20.125C358.231 20.9375 357.356 21.2812 356.293 21.1562C356.106 21.1562 355.918 21.1562 355.731 21.1562C355.543 21.0938 355.356 21.0625 355.168 21.0625C353.293 20.9375 351.387 21 349.449 21.25C347.574 21.4375 345.731 21.75 343.918 22.1875C342.856 22.5 341.793 22.8125 340.731 23.125C339.668 23.375 338.637 23.7188 337.637 24.1562C336.949 24.4688 336.262 24.8125 335.574 25.1875C335.074 25.4375 334.731 25.6562 334.543 25.8438C333.356 26.8438 332.574 27.7812 332.199 28.6562C331.824 29.5312 331.512 30.4688 331.262 31.4688C331.074 32.4062 330.887 33.375 330.699 34.375C330.512 35.375 330.262 36.3125 329.949 37.1875C329.449 38.4375 328.949 39.7188 328.449 41.0312C327.949 42.3438 327.543 43.6875 327.231 45.0625C327.043 46 326.981 46.9375 327.043 47.875C327.106 48.8125 327.199 49.75 327.324 50.6875C327.449 52.3125 327.637 54 327.887 55.75C328.199 57.5 328.606 59.1875 329.106 60.8125C329.606 62.4375 330.262 64 331.074 65.5C331.949 66.9375 333.012 68.2188 334.262 69.3438C335.824 70.6562 337.606 71.625 339.606 72.25C341.606 72.8125 343.606 73.2188 345.606 73.4688C348.106 73.8438 350.543 73.875 352.918 73.5625C355.293 73.25 357.543 72.375 359.668 70.9375C360.668 70.3125 361.606 70.1875 362.481 70.5625C363.418 70.875 364.106 71.4375 364.543 72.25C365.043 73 365.231 73.9062 365.106 74.9688C365.043 75.9688 364.512 76.7812 363.512 77.4062C360.512 79.4062 357.293 80.5938 353.856 80.9688C350.481 81.2812 347.074 81.1875 343.637 80.6875C341.324 80.375 339.074 79.9062 336.887 79.2812C334.699 78.5938 332.668 77.5312 330.793 76.0938C327.543 73.7188 325.106 70.625 323.481 66.8125Z" fill="black"/>
</g>
<defs>
<clipPath id="clip0_104_46">
<rect width="397.88" height="377.85" fill="white"/>
</clipPath>
</defs>
</svg>
